<svg width="256" height="256" viewBox="0 0 256 256" fill="none" xmlns="http://www.w3.org/2000/svg">
<g clip-path="url(#clip0_5_2)">
<rect width="256" height="256" rx="32" fill="#242424"/>
<path d="M30.0228 170V84.56H63.8628C82.8228 84.56 93.0228 98 93.0228 112.04C93.0228 126.08 82.8228 139.52 63.8628 139.52H51.0228V170H30.0228ZM51.0228 120.8H62.9028C68.6628 120.8 72.0228 116.6 72.0228 112.04C72.0228 107.48 68.6628 103.28 62.9028 103.28H51.0228V120.8Z" fill="#F0F0F0"/>
<path d="M164.128 170V84.56H182.488L209.848 127.52V84.56H230.848V170H212.488L185.128 127.04V170H164.128Z" fill="#F0F0F0"/>
<path d="M135.83 133.23H104.78V125.13H135.83L129.89 119.19L135.56 113.52L151.22 129.18L135.56 144.84L129.89 139.17L135.83 133.23Z" fill="#F0F0F0"/>
</g>
<defs>
<clipPath id="clip0_5_2">
<rect width="256" height="256" fill="white"/>
</clipPath>
</defs>
</svg>
