<svg width="256" height="256" viewBox="0 0 256 256" fill="none" xmlns="http://www.w3.org/2000/svg">
<g clip-path="url(#clip0_6_31)">
<rect width="256" height="256" rx="32" fill="#D4881D"/>
<path d="M30.0228 170V84.56H63.8628C82.8228 84.56 93.0228 98 93.0228 112.04C93.0228 126.08 82.8228 139.52 63.8628 139.52H51.0228V170H30.0228ZM51.0228 120.8H62.9028C68.6628 120.8 72.0228 116.6 72.0228 112.04C72.0228 107.48 68.6628 103.28 62.9028 103.28H51.0228V120.8Z" fill="#F0F0F0"/>
<path d="M164.128 170V84.56H182.488L209.848 127.52V84.56H230.848V170H212.488L185.128 127.04V170H164.128Z" fill="#F0F0F0"/>
<path d="M104.116 126.76C104.116 123.4 106.9 120.616 110.26 120.616C113.62 120.616 116.404 123.4 116.404 126.76C116.404 130.12 113.62 132.904 110.26 132.904C106.9 132.904 104.116 130.12 104.116 126.76ZM122.356 126.76C122.356 123.4 125.14 120.616 128.5 120.616C131.86 120.616 134.644 123.4 134.644 126.76C134.644 130.12 131.86 132.904 128.5 132.904C125.14 132.904 122.356 130.12 122.356 126.76ZM140.596 126.76C140.596 123.4 143.38 120.616 146.74 120.616C150.1 120.616 152.884 123.4 152.884 126.76C152.884 130.12 150.1 132.904 146.74 132.904C143.38 132.904 140.596 130.12 140.596 126.76Z" fill="#F0F0F0"/>
</g>
<defs>
<clipPath id="clip0_6_31">
<rect width="256" height="256" fill="white"/>
</clipPath>
</defs>
</svg>
